<?xml version="1.0" standalone="no"?>
<!DOCTYPE svg PUBLIC "-//W3C//DTD SVG 20010904//EN"
 "http://www.w3.org/TR/2001/REC-SVG-20010904/DTD/svg10.dtd">
<svg version="1.0" xmlns="http://www.w3.org/2000/svg"
 width="400.000000pt" height="400.000000pt" viewBox="0 0 400.000000 400.000000"
 preserveAspectRatio="xMidYMid meet">

<g transform="translate(0.000000,400.000000) scale(0.100000,-0.100000)"
fill="#4369D7" stroke="none">
<path d="M1579 3405 c-150 -32 -271 -74 -389 -137 -130 -69 -162 -93 -271
-200 -177 -173 -299 -364 -363 -566 -58 -185 -71 -280 -71 -522 0 -223 0 -226
32 -335 44 -152 79 -234 154 -360 76 -128 159 -220 291 -326 246 -196 495
-302 845 -359 540 -88 1085 135 1423 585 77 102 190 330 229 462 76 259 81
503 15 818 -52 252 -125 370 -236 382 -63 7 -125 -22 -162 -75 -26 -38 -28
-48 -23 -100 5 -50 78 -324 105 -392 18 -48 34 -233 27 -329 -12 -165 -70
-358 -148 -491 -60 -103 -194 -249 -288 -315 -90 -63 -236 -136 -333 -165
-121 -37 -409 -53 -551 -31 -232 37 -468 130 -605 240 -79 63 -195 177 -245
242 -138 177 -216 433 -201 657 17 254 105 458 288 672 108 126 232 206 413
268 136 46 235 63 370 64 172 0 293 -26 430 -94 87 -43 149 -94 216 -178 67
-85 93 -135 115 -223 18 -68 15 -116 -12 -173 -20 -43 -158 -187 -216 -225
-20 -13 -73 -50 -117 -82 -110 -78 -111 -76 19 -259 42 -59 79 -124 80 -140 0
-17 -46 -5 -184 48 -80 30 -153 54 -163 52 -10 -2 -60 -59 -113 -127 -52 -69
-100 -126 -107 -129 -22 -7 -26 50 -13 196 12 139 12 146 -6 159 -25 20 -107
56 -174 78 -75 24 -160 64 -160 76 0 15 67 39 209 75 74 19 137 37 140 40 3 3
9 67 12 142 6 134 13 172 30 172 10 0 86 -105 133 -187 45 -77 40 -76 235 -20
l145 42 18 60 c10 33 21 90 24 128 l7 67 -26 0 c-15 0 -46 -6 -69 -14 -79 -27
-169 -47 -179 -41 -5 4 -63 86 -128 184 -123 184 -159 221 -236 248 -42 14
-48 14 -83 -4 -26 -14 -45 -35 -65 -74 -26 -52 -28 -63 -39 -284 -6 -126 -11
-231 -12 -232 -1 -1 -74 -21 -162 -44 -327 -84 -393 -114 -422 -191 -15 -39
-9 -113 8 -103 6 3 7 0 4 -8 -6 -17 60 -74 121 -105 22 -11 85 -36 140 -56 55
-21 142 -53 193 -73 l92 -36 -1 -46 c0 -25 -6 -137 -12 -247 -13 -226 -7 -280
37 -339 44 -57 121 -60 199 -6 43 30 89 85 243 294 48 64 91 117 97 117 15 0
273 -97 333 -126 30 -14 88 -29 137 -35 78 -11 89 -10 124 8 72 37 92 126 49
219 -13 27 -56 101 -96 163 -67 103 -110 198 -110 240 0 9 47 58 105 109 126
111 185 182 233 282 33 67 37 85 40 168 8 199 -65 340 -298 572 -136 137 -241
191 -500 258 -121 31 -152 35 -295 38 -141 3 -174 1 -276 -21z"/>
</g>
</svg>
